<?xml version="1.0" encoding="utf-8"?>
<!-- Generator: Adobe Illustrator 24.1.2, SVG Export Plug-In . SVG Version: 6.00 Build 0)  -->
<svg version="1.1" id="Layer_1" xmlns="http://www.w3.org/2000/svg" xmlns:xlink="http://www.w3.org/1999/xlink" x="0px" y="0px"
	 viewBox="0 0 250.3 232.4" style="enable-background:new 0 0 250.3 232.4;" xml:space="preserve">
<style type="text/css">
	.st0{fill:#FD6003;}
	.st1{fill:#FFFFFF;}
</style>
<path class="st0" d="M242.4,71.5c1.2,6.4,0.6,14.7-1.8,24.8c-4.9,21.1-15.8,39.2-32.6,54.2L124.3,225l-81.8-74.5
	c-16.9-15-27.7-33.1-32.6-54.2C7.4,86.2,6.8,77.9,8,71.5c1.5-19,8.3-34.6,20.5-46.9c12.1-12.3,26.4-18.4,43-18.4
	C82.2,6.1,92.8,9,102,14.5c9.4,5.6,17.3,13.5,22.8,23c5.3-9.6,13.2-17.6,22.8-23c9.6-5.5,20.4-8.3,31.4-8.3c16.5,0,30.9,6.1,43,18.4
	C234.1,36.9,240.9,52.5,242.4,71.5z"/>
<path class="st1" d="M249.7,69.3c1.3,6.8,0.6,15.6-2,26.4c-5.2,22.5-16.8,41.7-34.7,57.6l-88.9,79.1l-86.9-79.1
	C19.4,137.4,7.8,118.2,2.6,95.7C0,85-0.7,76.2,0.6,69.3c1.6-20.2,8.9-36.8,21.7-49.8S50.4,0,68,0c11.4-0.1,22.7,3,32.5,8.8
	c10,5.9,18.4,14.4,24.2,24.4c5.7-10.2,14-18.7,24.2-24.4C159,3,170.6-0.1,182.3,0c17.6,0,32.8,6.5,45.7,19.5S248.1,49.2,249.7,69.3z
	 M238.5,93.3c1.9-8.8,2.6-16.3,2-22.5c-1.6-17.9-7.9-32.6-18.8-44c-10.9-11.4-24-17.1-39.3-17.1c-11.4-0.1-22.6,3.3-32,9.8
	c-9.6,6.5-17,15.6-21.2,26.4l-4.4,10.3l-4.9-10.3c-4.6-11.4-11.5-20.3-20.8-26.6c-9.1-6.3-19.9-9.6-31-9.5c-15,0-28,5.7-39.1,17.1
	C17.9,38.2,11.6,52.7,10,70.3v0.5c-0.6,7.5,0.1,15.1,2,22.5c4.9,20.5,15.5,38.3,31.7,53.2l81.1,73.2l82-73.2
	C223,131.5,233.6,113.8,238.5,93.3z M77.3,29.3c2.9,0,4.4,1.6,4.4,4.9c0,3.3-1.5,4.9-4.4,4.9C67.1,38.8,57.2,42.9,50,50.3
	c-7.3,7-11.4,16.7-11.2,26.9c0,3.3-1.6,4.9-4.9,4.9S29,80.4,29,77.1c0-13,4.7-24.2,14.2-33.7C52.1,34.2,64.5,29.1,77.3,29.3
	L77.3,29.3z"/>
</svg>
