<svg id="Layer_1" data-name="Layer 1" xmlns="http://www.w3.org/2000/svg" viewBox="0 0 294.06 273.03"><defs><style>.cls-1{fill:#fff;}.cls-2{fill:#1d1d1b;}</style></defs><path class="cls-1" d="M383.32,188.76q2.3,12-2.29,31-9.18,39.57-40.73,67.68L235.91,380.34l-102.1-92.92q-31.56-28.1-40.73-67.68-4.59-18.93-2.29-31,2.86-35.55,25.52-58.5t53.63-22.95a73.68,73.68,0,0,1,38.15,10.33,80.06,80.06,0,0,1,28.39,28.68,74.38,74.38,0,0,1,28.39-28.68,77.79,77.79,0,0,1,39.3-10.33q31,0,53.63,22.95T383.32,188.76Z" transform="translate(-90.02 -107.31)"/><path class="cls-2" d="M383.32,188.76q2.3,12-2.29,31-9.18,39.57-40.73,67.68L235.91,380.34l-102.1-92.92q-31.56-28.1-40.73-67.68-4.59-18.93-2.29-31,2.86-35.55,25.52-58.5t53.63-22.95a73.68,73.68,0,0,1,38.15,10.33,80.06,80.06,0,0,1,28.39,28.68,74.38,74.38,0,0,1,28.39-28.68,77.79,77.79,0,0,1,39.3-10.33q31,0,53.63,22.95T383.32,188.76Zm-13.19,28.11q3.44-15.5,2.29-26.39-2.87-31.53-22.08-51.62t-46.17-20.08a65.44,65.44,0,0,0-37.57,11.48,67.56,67.56,0,0,0-25,31l-5.16,12-5.73-12q-8-20.07-24.38-31.26a63,63,0,0,0-36.43-11.19q-26.38,0-45.88,20.08t-22.37,51v.57A80.55,80.55,0,0,0,104,216.87q8.61,36.13,37.28,62.52l95.22,86,96.37-86Q361.52,253,370.13,216.87ZM180.84,141.73c3.44,0,5.17,1.91,5.17,5.73s-1.73,5.74-5.17,5.74a43.72,43.72,0,0,0-32.12,13.19,43.05,43.05,0,0,0-13.19,31.55c0,3.83-1.92,5.74-5.74,5.74s-5.73-1.91-5.73-5.74q0-22.93,16.63-39.58A54.7,54.7,0,0,1,180.84,141.73Z" transform="translate(-90.02 -107.31)"/></svg>